<?xml version="1.0" encoding="UTF-8" standalone="no"?><svg xmlns="http://www.w3.org/2000/svg" xmlns:xlink="http://www.w3.org/1999/xlink" contentScriptType="application/ecmascript" contentStyleType="text/css" height="412px" preserveAspectRatio="none" style="width:735px;height:412px;" version="1.1" viewBox="0 0 735 412" width="735px" zoomAndPan="magnify"><defs><filter height="300%" id="fmeiapy9lzvmf" width="300%" x="-1" y="-1"><feGaussianBlur result="blurOut" stdDeviation="2.0"/><feColorMatrix in="blurOut" result="blurOut2" type="matrix" values="0 0 0 0 0 0 0 0 0 0 0 0 0 0 0 0 0 0 .4 0"/><feOffset dx="4.0" dy="4.0" in="blurOut2" result="blurOut3"/><feBlend in="SourceGraphic" in2="blurOut3" mode="normal"/></filter></defs><g><text fill="#000000" font-family="sans-serif" font-size="14" font-weight="bold" lengthAdjust="spacingAndGlyphs" textLength="212" x="256.75" y="22.9951">Amplification : DDoS attack</text><line style="stroke: #A80036; stroke-width: 1.0; stroke-dasharray: 5.0,5.0;" x1="34.5" x2="34.5" y1="116.5938" y2="319.3906"/><line style="stroke: #A80036; stroke-width: 1.0; stroke-dasharray: 5.0,5.0;" x1="152.5" x2="152.5" y1="116.5938" y2="319.3906"/><line style="stroke: #A80036; stroke-width: 1.0; stroke-dasharray: 5.0,5.0;" x1="201.5" x2="201.5" y1="116.5938" y2="319.3906"/><line style="stroke: #A80036; stroke-width: 1.0; stroke-dasharray: 5.0,5.0;" x1="445.5" x2="445.5" y1="116.5938" y2="319.3906"/><line style="stroke: #A80036; stroke-width: 1.0; stroke-dasharray: 5.0,5.0;" x1="528" x2="528" y1="116.5938" y2="319.3906"/><line style="stroke: #A80036; stroke-width: 1.0; stroke-dasharray: 5.0,5.0;" x1="612" x2="612" y1="116.5938" y2="319.3906"/><text fill="#000000" font-family="sans-serif" font-size="14" lengthAdjust="spacingAndGlyphs" textLength="57" x="3" y="113.292">Attacker</text><ellipse cx="34.5" cy="43.2969" fill="#FF0000" filter="url(#fmeiapy9lzvmf)" rx="8" ry="8" style="stroke: #A80036; stroke-width: 2.0;"/><path d="M34.5,51.2969 L34.5,78.2969 M21.5,59.2969 L47.5,59.2969 M34.5,78.2969 L21.5,93.2969 M34.5,78.2969 L47.5,93.2969 " fill="#FF0000" filter="url(#fmeiapy9lzvmf)" style="stroke: #A80036; stroke-width: 2.0;"/><text fill="#000000" font-family="sans-serif" font-size="14" lengthAdjust="spacingAndGlyphs" textLength="33" x="133" y="113.292">Bot1</text><ellipse cx="152.5" cy="43.2969" fill="#FF0000" filter="url(#fmeiapy9lzvmf)" rx="8" ry="8" style="stroke: #A80036; stroke-width: 2.0;"/><path d="M152.5,51.2969 L152.5,78.2969 M139.5,59.2969 L165.5,59.2969 M152.5,78.2969 L139.5,93.2969 M152.5,78.2969 L165.5,93.2969 " fill="#FF0000" filter="url(#fmeiapy9lzvmf)" style="stroke: #A80036; stroke-width: 2.0;"/><text fill="#000000" font-family="sans-serif" font-size="14" lengthAdjust="spacingAndGlyphs" textLength="33" x="182" y="113.292">Bot2</text><ellipse cx="201.5" cy="43.2969" fill="#FF0000" filter="url(#fmeiapy9lzvmf)" rx="8" ry="8" style="stroke: #A80036; stroke-width: 2.0;"/><path d="M201.5,51.2969 L201.5,78.2969 M188.5,59.2969 L214.5,59.2969 M201.5,78.2969 L188.5,93.2969 M201.5,78.2969 L214.5,93.2969 " fill="#FF0000" filter="url(#fmeiapy9lzvmf)" style="stroke: #A80036; stroke-width: 2.0;"/><text fill="#000000" font-family="sans-serif" font-size="14" lengthAdjust="spacingAndGlyphs" textLength="62" x="411.5" y="113.292">Reflector</text><ellipse cx="445.5" cy="43.2969" fill="#000000" filter="url(#fmeiapy9lzvmf)" rx="8" ry="8" style="stroke: #A80036; stroke-width: 2.0;"/><path d="M445.5,51.2969 L445.5,78.2969 M432.5,59.2969 L458.5,59.2969 M445.5,78.2969 L432.5,93.2969 M445.5,78.2969 L458.5,93.2969 " fill="#000000" filter="url(#fmeiapy9lzvmf)" style="stroke: #A80036; stroke-width: 2.0;"/><text fill="#000000" font-family="sans-serif" font-size="14" lengthAdjust="spacingAndGlyphs" textLength="71" x="489.5" y="113.292">Legitimate</text><ellipse cx="528" cy="43.2969" fill="#008000" filter="url(#fmeiapy9lzvmf)" rx="8" ry="8" style="stroke: #A80036; stroke-width: 2.0;"/><path d="M528,51.2969 L528,78.2969 M515,59.2969 L541,59.2969 M528,78.2969 L515,93.2969 M528,78.2969 L541,93.2969 " fill="#008000" filter="url(#fmeiapy9lzvmf)" style="stroke: #A80036; stroke-width: 2.0;"/><text fill="#000000" font-family="sans-serif" font-size="14" lengthAdjust="spacingAndGlyphs" textLength="45" x="586.5" y="113.292">Target</text><ellipse cx="612" cy="43.2969" fill="#008000" filter="url(#fmeiapy9lzvmf)" rx="8" ry="8" style="stroke: #A80036; stroke-width: 2.0;"/><path d="M612,51.2969 L612,78.2969 M599,59.2969 L625,59.2969 M612,78.2969 L599,93.2969 M612,78.2969 L625,93.2969 " fill="#008000" filter="url(#fmeiapy9lzvmf)" style="stroke: #A80036; stroke-width: 2.0;"/><text fill="#000000" font-family="sans-serif" font-size="14" lengthAdjust="spacingAndGlyphs" textLength="57" x="3" y="399.3857">Attacker</text><ellipse cx="34.5" cy="329.3906" fill="#FF0000" filter="url(#fmeiapy9lzvmf)" rx="8" ry="8" style="stroke: #A80036; stroke-width: 2.0;"/><path d="M34.5,337.3906 L34.5,364.3906 M21.5,345.3906 L47.5,345.3906 M34.5,364.3906 L21.5,379.3906 M34.5,364.3906 L47.5,379.3906 " fill="#FF0000" filter="url(#fmeiapy9lzvmf)" style="stroke: #A80036; stroke-width: 2.0;"/><text fill="#000000" font-family="sans-serif" font-size="14" lengthAdjust="spacingAndGlyphs" textLength="33" x="133" y="399.3857">Bot1</text><ellipse cx="152.5" cy="329.3906" fill="#FF0000" filter="url(#fmeiapy9lzvmf)" rx="8" ry="8" style="stroke: #A80036; stroke-width: 2.0;"/><path d="M152.5,337.3906 L152.5,364.3906 M139.5,345.3906 L165.5,345.3906 M152.5,364.3906 L139.5,379.3906 M152.5,364.3906 L165.5,379.3906 " fill="#FF0000" filter="url(#fmeiapy9lzvmf)" style="stroke: #A80036; stroke-width: 2.0;"/><text fill="#000000" font-family="sans-serif" font-size="14" lengthAdjust="spacingAndGlyphs" textLength="33" x="182" y="399.3857">Bot2</text><ellipse cx="201.5" cy="329.3906" fill="#FF0000" filter="url(#fmeiapy9lzvmf)" rx="8" ry="8" style="stroke: #A80036; stroke-width: 2.0;"/><path d="M201.5,337.3906 L201.5,364.3906 M188.5,345.3906 L214.5,345.3906 M201.5,364.3906 L188.5,379.3906 M201.5,364.3906 L214.5,379.3906 " fill="#FF0000" filter="url(#fmeiapy9lzvmf)" style="stroke: #A80036; stroke-width: 2.0;"/><text fill="#000000" font-family="sans-serif" font-size="14" lengthAdjust="spacingAndGlyphs" textLength="62" x="411.5" y="399.3857">Reflector</text><ellipse cx="445.5" cy="329.3906" fill="#000000" filter="url(#fmeiapy9lzvmf)" rx="8" ry="8" style="stroke: #A80036; stroke-width: 2.0;"/><path d="M445.5,337.3906 L445.5,364.3906 M432.5,345.3906 L458.5,345.3906 M445.5,364.3906 L432.5,379.3906 M445.5,364.3906 L458.5,379.3906 " fill="#000000" filter="url(#fmeiapy9lzvmf)" style="stroke: #A80036; stroke-width: 2.0;"/><text fill="#000000" font-family="sans-serif" font-size="14" lengthAdjust="spacingAndGlyphs" textLength="71" x="489.5" y="399.3857">Legitimate</text><ellipse cx="528" cy="329.3906" fill="#008000" filter="url(#fmeiapy9lzvmf)" rx="8" ry="8" style="stroke: #A80036; stroke-width: 2.0;"/><path d="M528,337.3906 L528,364.3906 M515,345.3906 L541,345.3906 M528,364.3906 L515,379.3906 M528,364.3906 L541,379.3906 " fill="#008000" filter="url(#fmeiapy9lzvmf)" style="stroke: #A80036; stroke-width: 2.0;"/><text fill="#000000" font-family="sans-serif" font-size="14" lengthAdjust="spacingAndGlyphs" textLength="45" x="586.5" y="399.3857">Target</text><ellipse cx="612" cy="329.3906" fill="#008000" filter="url(#fmeiapy9lzvmf)" rx="8" ry="8" style="stroke: #A80036; stroke-width: 2.0;"/><path d="M612,337.3906 L612,364.3906 M599,345.3906 L625,345.3906 M612,364.3906 L599,379.3906 M612,364.3906 L625,379.3906 " fill="#008000" filter="url(#fmeiapy9lzvmf)" style="stroke: #A80036; stroke-width: 2.0;"/><polygon fill="#FF0000" points="140.5,141.5938,150.5,145.5938,140.5,149.5938,144.5,145.5938" style="stroke: #FF0000; stroke-width: 1.0;"/><line style="stroke: #FF0000; stroke-width: 1.0;" x1="34.5" x2="146.5" y1="145.5938" y2="145.5938"/><text fill="#000000" font-family="sans-serif" font-size="13" lengthAdjust="spacingAndGlyphs" textLength="94" x="41.5" y="140.6606">ATTACK Target</text><polygon fill="#FF0000" points="189.5,170.7266,199.5,174.7266,189.5,178.7266,193.5,174.7266" style="stroke: #FF0000; stroke-width: 1.0;"/><line style="stroke: #FF0000; stroke-width: 1.0;" x1="34.5" x2="195.5" y1="174.7266" y2="174.7266"/><text fill="#000000" font-family="sans-serif" font-size="13" lengthAdjust="spacingAndGlyphs" textLength="94" x="41.5" y="169.7935">ATTACK Target</text><polygon fill="#FF0000" points="433.5,199.8594,443.5,203.8594,433.5,207.8594,437.5,203.8594" style="stroke: #FF0000; stroke-width: 1.0;"/><line style="stroke: #FF0000; stroke-width: 1.0;" x1="152.5" x2="439.5" y1="203.8594" y2="203.8594"/><text fill="#000000" font-family="sans-serif" font-size="13" lengthAdjust="spacingAndGlyphs" textLength="220" x="159.5" y="198.9263">REQUEST with spoofed IP of Target</text><polygon fill="#000000" points="600,199.8594,610,203.8594,600,207.8594,604,203.8594" style="stroke: #000000; stroke-width: 1.0;"/><line style="stroke: #000000; stroke-width: 1.0;" x1="445.5" x2="606" y1="203.8594" y2="203.8594"/><text fill="#000000" font-family="sans-serif" font-size="13" lengthAdjust="spacingAndGlyphs" textLength="116" x="452.5" y="198.9263">LARGE RESPONSE</text><polygon fill="#FF0000" points="433.5,228.9922,443.5,232.9922,433.5,236.9922,437.5,232.9922" style="stroke: #FF0000; stroke-width: 1.0;"/><line style="stroke: #FF0000; stroke-width: 1.0;" x1="201.5" x2="439.5" y1="232.9922" y2="232.9922"/><text fill="#000000" font-family="sans-serif" font-size="13" lengthAdjust="spacingAndGlyphs" textLength="220" x="208.5" y="228.0591">REQUEST with spoofed IP of Target</text><polygon fill="#000000" points="600,228.9922,610,232.9922,600,236.9922,604,232.9922" style="stroke: #000000; stroke-width: 1.0;"/><line style="stroke: #000000; stroke-width: 1.0;" x1="445.5" x2="606" y1="232.9922" y2="232.9922"/><text fill="#000000" font-family="sans-serif" font-size="13" lengthAdjust="spacingAndGlyphs" textLength="116" x="452.5" y="228.0591">LARGE RESPONSE</text><polygon fill="#008000" points="600,258.125,610,262.125,600,266.125,604,262.125" style="stroke: #008000; stroke-width: 1.0;"/><line style="stroke: #008000; stroke-width: 1.0;" x1="528" x2="606" y1="262.125" y2="262.125"/><text fill="#000000" font-family="sans-serif" font-size="13" lengthAdjust="spacingAndGlyphs" textLength="60" x="535" y="257.1919">REQUEST</text><polygon fill="#FFAAAA" filter="url(#fmeiapy9lzvmf)" points="506.5,275.2578,506.5,300.2578,713.5,300.2578,713.5,285.2578,703.5,275.2578,506.5,275.2578" style="stroke: #A80036; stroke-width: 1.0;"/><line style="stroke: #A80036; stroke-width: 1.0;" x1="703.5" x2="703.5" y1="275.2578" y2="285.2578"/><line style="stroke: #A80036; stroke-width: 1.0;" x1="713.5" x2="703.5" y1="285.2578" y2="285.2578"/><text fill="#000000" font-family="sans-serif" font-size="13" lengthAdjust="spacingAndGlyphs" textLength="186" x="512.5" y="292.3247">Limit Reached / No Response</text><!--
@startuml
!pragma teoz true
title Amplification : DDoS attack
actor Attacker #Red
actor Bot1 #Red
actor Bot2 #Red
actor Reflector #Black
actor Legitimate #Green
actor Target #Green

Attacker -[#red]> Bot1 : ATTACK Target
Attacker -[#red]> Bot2 : ATTACK Target

Bot1 -[#red]> Reflector : REQUEST with spoofed IP of Target 
& Reflector -[#black]> Target : LARGE RESPONSE 
Bot2 -[#red]> Reflector : REQUEST with spoofed IP of Target 
& Reflector -[#black]> Target : LARGE RESPONSE 
Legitimate -[#green]> Target : REQUEST 
note over Target #FFAAAA: Limit Reached / No Response
@enduml

PlantUML version 1.2017.15(Mon Jul 03 18:45:34 CEST 2017)
(GPL source distribution)
Java Runtime: OpenJDK Runtime Environment
JVM: OpenJDK 64-Bit Server VM
Java Version: 11.0.4+11-post-Ubuntu-1ubuntu218.04.3
Operating System: Linux
OS Version: 4.15.0-58-generic
Default Encoding: UTF-8
Language: en
Country: US
--></g></svg>